<?xml version="1.0" encoding="UTF-8"?>
<svg version="1.1" xmlns="http://www.w3.org/2000/svg" width="32" height="32">
<path d="M0 0 C4.8846525 2.26787438 7.73212562 5.1153475 10 10 C10.75381535 15.5997712 10.77303575 20.33499991 8.375 25.5 C3.80134327 30.3143755 0.6912538 32.25156236 -6 32.5 C-12.6912538 32.25156236 -15.80134327 30.3143755 -20.375 25.5 C-22.77303575 20.33499991 -22.75381535 15.5997712 -22 10 C-17.52212837 0.3553534 -9.85292056 -1.32635469 0 0 Z " fill="#414242" transform="translate(22,0)"/>
<path d="M0 0 C3.94862285 1.28063444 5.87177361 2.41626245 8 6 C8.84685067 11.47782686 8.71637549 16.4570374 6.375 21.5 C1.74038005 26.37854732 -1.34827825 28.2478837 -8.125 28.4375 C-12.49140144 28.43194478 -14.73022509 27.94905536 -18 25 C-17.071875 24.87625 -17.071875 24.87625 -16.125 24.75 C-13.88670521 24.20721211 -13.88670521 24.20721211 -12.9375 22.3125 C-12.628125 21.549375 -12.31875 20.78625 -12 20 C-11 18 -10 16 -9 14 C-7.02 14 -5.04 14 -3 14 C-3.33 13.34 -3.66 12.68 -4 12 C-4.99 11.67 -5.98 11.34 -7 11 C-7 9.35 -7 7.7 -7 6 C-6.030625 5.7525 -5.06125 5.505 -4.0625 5.25 C-3.051875 4.8375 -2.04125 4.425 -1 4 C-0.03122943 1.96756452 -0.03122943 1.96756452 0 0 Z " fill="#414141" transform="translate(24,4)"/>
<path d="M0 0 C4.62 0 9.24 0 14 0 C13.67 0.99 13.34 1.98 13 3 C11.35 3.33 9.7 3.66 8 4 C7.67 5.65 7.34 7.3 7 9 C8.32 9.33 9.64 9.66 11 10 C11 10.66 11 11.32 11 12 C9.02 12 7.04 12 5 12 C4.566875 13.423125 4.566875 13.423125 4.125 14.875 C3 18 3 18 1 20 C0.01 19.67 -0.98 19.34 -2 19 C-1.2575 17.88625 -1.2575 17.88625 -0.5 16.75 C1.31923475 13.93681812 1.31923475 13.93681812 1 10 C1.66 10 2.32 10 3 10 C3.144375 9.236875 3.28875 8.47375 3.4375 7.6875 C4 5 4 5 5 2 C1.88214887 2.64644661 1.88214887 2.64644661 1 5 C0.34 5 -0.32 5 -1 5 C-0.67 3.35 -0.34 1.7 0 0 Z " fill="#248DDC" transform="translate(10,6)"/>
<path d="M0 0 C1.32 0 2.64 0 4 0 C3.46930939 3.82097239 2.50298434 6.06171403 0 9 C-0.99 8.67 -1.98 8.34 -3 8 C-2.505 7.236875 -2.01 6.47375 -1.5 5.6875 C0.24368308 3.07636249 0.24368308 3.07636249 0 0 Z " fill="#2195ED" transform="translate(11,17)"/>
</svg>
